<svg width="272" height="410" viewBox="0 0 272 410" fill="none" xmlns="http://www.w3.org/2000/svg">
<g clip-path="url(#clip0_15_7)">
<path d="M132.52 409.6C122.99 406.33 119.36 399.54 119.65 389.63C120.05 376.19 119.75 362.73 119.75 348.8C118.18 348.73 116.79 348.61 115.4 348.61C106.48 348.59 97.56 348.78 88.65 348.55C76.8 348.24 69.34 338.4 72.63 327.76C74.59 321.42 80.02 316.94 86.78 316.76C96.22 316.51 105.67 316.64 115.12 316.61C116.55 316.61 117.97 316.61 119.57 316.61V271.02C116.49 270.53 113.35 270.14 110.26 269.52C82.22 263.9 58.02 251.06 38.13 230.4C20.06 211.63 8.27001 189.43 2.98001 163.87C-2.77999 136.07 -0.21999 108.96 10.87 82.85C23.17 53.89 43.32 31.83 70.81 16.63C87.07 7.61 104.57 2.45 123.06 0.67C124.36 0.54 125.64 0.23 126.93 0C132.79 0 138.64 0 144.5 0C153.36 1.6 162.37 2.66 171.06 4.9C195.46 11.19 216.31 23.8 233.73 42.01C251.75 60.85 263.43 83.14 268.61 108.68C274.17 136.06 271.74 162.89 260.78 188.58C246.03 223.13 221.18 247.92 186.3 261.9C176.53 265.82 165.9 267.61 155.66 270.35C154.52 270.65 153.33 270.77 151.95 271.01V316.59C158.4 316.59 164.74 316.59 171.09 316.59C175.48 316.59 179.88 316.49 184.26 316.69C192.74 317.08 199.13 323.42 199.56 331.66C199.99 340.08 194.19 347.43 185.55 348.17C177.75 348.84 169.87 348.5 162.03 348.59C158.73 348.62 155.44 348.59 151.69 348.59V360.43C151.69 370.16 151.38 379.91 151.78 389.62C152.18 399.54 148.45 406.32 138.92 409.59H132.53L132.52 409.6ZM135.83 239.94C193.12 239.8 239.71 192.97 239.5 135.74C239.29 78.3 192.51 31.7 135.4 32.01C78.14 32.33 31.9 78.79 31.93 135.97C31.95 193.31 78.7 240.08 135.83 239.94Z" fill="black"/>
</g>
<defs>
<clipPath id="clip0_15_7">
<rect width="271.49" height="409.6" fill="white"/>
</clipPath>
</defs>
</svg>
