<svg width="244" height="188" viewBox="0 0 244 188" fill="none" xmlns="http://www.w3.org/2000/svg">
<path d="M208.34 89.1147C215.278 93.651 222.13 97.5651 228.304 102.353C232.305 105.456 235.849 109.489 238.684 113.718C246.237 124.988 245.638 137.62 237.597 148.803C231.462 157.333 223.161 163.247 213.955 167.957C212.758 168.571 210.765 168.327 209.411 167.799C202.488 165.09 195.652 162.152 188.785 159.294C187.95 158.947 187.115 158.608 185.878 158.104C186.123 159.152 186.209 159.782 186.406 160.373C187.721 164.389 189.092 168.382 190.391 172.406C191.502 175.84 190.533 177.911 187.036 178.699C177.475 180.841 167.93 183.196 158.267 184.732C140.484 187.543 122.536 188.024 104.571 186.795C80.8818 185.173 57.7356 181.014 35.944 171.091C25.5404 166.35 15.8613 160.475 8.45045 151.544C-3.33136 137.352 -2.72494 121.074 9.89955 107.567C16.4756 100.534 24.4378 95.4781 32.9828 91.249C33.8806 90.8079 34.7705 90.3511 35.7707 89.8471C34.5736 86.2874 33.3214 82.9009 32.2818 79.4435C29.8089 71.2136 28.5803 62.771 28.4937 54.1788C28.4543 50.5797 29.9743 48.8392 33.5813 49.1936C40.7244 49.8945 47.8281 50.9498 54.9398 51.8713C55.5147 51.9421 56.0817 52.0996 56.9795 52.2808C56.9795 51.2412 57.0032 50.3591 56.9795 49.4771C56.6015 38.0024 58.3656 26.8822 62.4688 16.1478C63.7919 12.6904 65.5087 11.895 68.974 13.1551C79.1177 16.8487 88.1903 22.3065 96.1367 29.6228C96.625 30.0718 97.1448 30.4813 97.6094 30.8672C100.397 26.2206 102.792 21.4402 105.918 17.1952C109.769 11.9659 114.132 7.09881 118.448 2.2396C120.866 -0.477464 122.984 -0.327829 125.623 2.25535C133.553 10.0206 140.074 18.8176 144.965 28.8038C145.296 29.4811 145.666 30.1426 146.146 31.0404C147.887 29.552 149.509 28.1344 151.171 26.7483C158.338 20.7944 166.347 16.3132 175.081 13.1315C178.499 11.8871 180.208 12.7219 181.539 16.2266C185.634 26.9688 187.391 38.0891 186.997 49.5637C186.965 50.3906 186.997 51.2176 186.997 52.1626C191.32 51.3908 195.439 50.493 199.598 49.9575C203.283 49.4771 207.016 49.2881 210.734 49.1699C213.986 49.0676 215.522 50.7057 215.491 54.0213C215.372 65.3857 213.277 76.3799 209.166 86.9804C208.836 87.831 208.529 88.6973 208.363 89.1304L208.34 89.1147ZM204.709 97.2501C185.918 128.721 158.747 146.527 121.905 146.504C85.0873 146.48 57.9482 128.642 39.3068 97.3682C30.4941 100.936 21.0671 107.378 15.4912 113.608C5.67826 124.57 5.70976 136.581 15.6093 147.472C21.0986 153.521 27.8164 157.915 35.0619 161.507C57.3576 172.564 81.2913 176.974 105.855 178.691C123.229 179.904 140.563 179.227 157.779 176.62C165.693 175.423 173.522 173.69 181.618 172.162C181.24 170.847 181.043 170.052 180.783 169.264C179.05 164.05 177.326 158.829 175.538 153.631C174.821 151.544 174.27 149.512 176.192 147.772C178.011 146.126 179.885 146.772 181.862 147.598C191.218 151.528 200.582 155.419 209.986 159.231C210.868 159.585 212.222 159.68 212.994 159.246C219.082 155.836 224.673 151.749 229.233 146.386C237.786 136.321 238.062 125.547 229.832 115.246C223.161 106.898 214.183 101.716 204.717 97.2422L204.709 97.2501ZM36.889 57.4629C38.22 102.062 77.0543 137.675 117.613 138.164C116.424 96.8485 81.5197 59.3136 36.889 57.4629ZM126.347 138.368C175.073 136.069 207.127 93.7928 206.859 57.455C161.386 59.5184 127.347 97.9195 126.347 138.368ZM121.913 10.1388C104.934 28.3943 96.6644 49.5086 97.8142 74.1354C97.8693 75.238 98.6333 76.5217 99.4366 77.3565C109.202 87.5081 116.471 99.1717 121.047 112.513C121.275 113.174 121.598 113.797 122.047 114.852C122.473 113.694 122.732 113.009 122.977 112.316C127.497 99.2426 134.561 87.7207 144.201 77.8212C145.69 76.2933 146.28 74.7261 146.343 72.6784C146.784 58.2741 143.823 44.6258 137.357 31.7492C133.388 23.8501 128.34 16.7227 121.913 10.1466V10.1388ZM174.9 21.9048C165.851 25.6536 158.235 30.8514 151.454 37.3724C149.809 38.9554 149.446 40.31 150.313 42.4049C151.108 44.3422 151.612 46.4371 151.966 48.5084C153.053 54.9742 153.998 61.4637 155.006 67.9767C154.983 67.9846 155.235 67.9531 155.416 67.8192C162.11 62.8734 169.285 58.786 177.019 55.6594C177.656 55.3995 178.31 54.3599 178.365 53.6354C178.649 50.1859 178.932 46.7128 178.83 43.2554C178.617 36.0572 177.381 29.0164 174.908 21.8969L174.9 21.9048ZM69.1866 21.5662C68.6983 22.9995 68.3597 23.8422 68.1155 24.7085C65.5087 33.9938 64.3747 43.4129 65.4457 53.0605C65.619 54.5962 66.1467 55.2656 67.5328 56.0059C74.3057 59.605 80.9527 63.4325 87.6469 67.1813C88.1824 67.4806 88.7101 67.8035 89.4346 68.2288C89.7575 58.66 91.246 49.6031 94.0182 40.751C94.223 40.0973 93.8528 38.8924 93.3251 38.4277C89.4504 35.0412 85.6544 31.5051 81.4567 28.5518C77.7079 25.9135 73.4788 23.9682 69.1866 21.5583V21.5662Z" fill="white"/>
</svg>
