<svg width="357" height="357" viewBox="0 0 357 357" fill="none" xmlns="http://www.w3.org/2000/svg">
<path d="M221.056 108.576C244.306 85.3064 267.406 62.1964 290.946 38.6464C289.486 38.5664 288.246 38.4364 286.996 38.4364C269.276 38.4264 251.556 38.4764 233.846 38.4064C223.196 38.3664 215.866 32.5564 213.856 22.8464C211.676 12.2764 218.856 1.96639 229.536 0.386386C231.136 0.146386 232.766 0.0163865 234.376 0.0163865C268.566 -0.00361348 302.756 -0.013614 336.946 0.036386C339.296 0.036386 341.716 0.276386 343.966 0.906386C351.986 3.13639 356.896 9.80639 356.906 18.4864C356.946 53.5464 356.936 88.5964 356.886 123.656C356.876 133.116 352.496 139.836 344.716 142.836C337.156 145.746 328.906 143.836 323.476 137.916C319.716 133.816 318.466 128.856 318.466 123.436C318.486 105.716 318.466 88.0064 318.466 70.2864C318.466 68.9764 318.466 67.6664 318.466 66.3664C295.106 89.7764 271.976 112.956 248.656 136.336C273.606 170.726 281.976 209.396 272.066 251.526C264.276 284.616 246.256 311.346 218.576 331.086C161.606 371.716 84.7563 363.796 36.3863 312.666C-9.72366 263.936 -12.3037 185.576 30.3263 132.166C74.6963 76.5664 159.136 62.8464 221.056 108.576ZM138.516 319.196C193.606 319.436 238.616 274.786 238.926 219.596C239.236 163.916 194.746 118.966 139.116 118.736C83.5763 118.506 38.5563 163.246 38.4263 218.806C38.2963 274.036 83.0863 318.956 138.516 319.196Z" fill="black"/>
</svg>
