<svg width="265" height="265" viewBox="0 0 265 265" fill="none" xmlns="http://www.w3.org/2000/svg">
<g clip-path="url(#clip0_28_11)">
<path d="M129.389 0H135.602C144.489 2.60022 149.875 8.83148 153.311 17.0872C153.766 18.183 154.212 19.2695 154.648 20.3282C157.499 17.9323 160.1 15.4249 163.016 13.3633C167.872 9.94586 173.305 7.94926 179.332 9.02649C187.811 10.5402 192.454 16.2978 194.488 24.1728C195.593 28.4353 195.704 32.9578 196.28 37.4804C196.846 37.2482 197.701 36.9139 198.546 36.5424C203.765 34.2672 209.179 33.1064 214.909 33.6172C222.607 34.2951 228.95 39.5884 230.807 47.0641C231.912 51.5123 231.745 55.9791 230.482 60.3531C229.637 63.2969 228.523 66.1664 227.585 68.8781C231.346 69.2217 235.153 69.2681 238.84 69.9553C248.247 71.7012 254.646 77.5888 255.955 85.6774C257.088 92.7259 254.33 98.7064 250.104 104.093C248.433 106.228 246.473 108.132 244.514 110.287C245.433 110.658 246.213 110.974 246.993 111.28C252.027 113.286 256.568 116.016 260.143 120.168C265.641 126.538 266.523 134.524 262.474 141.517C259.605 146.467 255.258 149.791 250.207 152.252C248.377 153.144 246.473 153.896 244.533 154.75C245.415 155.679 246.288 156.394 246.901 157.286C249.566 161.158 252.863 164.798 254.627 169.052C259.317 180.372 253.448 191.163 241.022 194.469C236.676 195.63 232.051 195.741 227.817 196.298C228.829 199.697 230.296 203.495 231.076 207.424C233.417 219.245 227.52 228.931 216.654 231.011C213.599 231.596 210.247 231.513 207.173 230.965C203.338 230.287 199.632 228.81 196.085 227.743C195.76 231.355 195.713 235.162 195.026 238.849C193.29 248.247 187.383 254.655 179.304 255.964C172.256 257.106 166.275 254.348 160.889 250.123C158.753 248.451 156.859 246.473 154.704 244.505C154.333 245.415 154.017 246.186 153.71 246.966C151.677 252.082 148.891 256.689 144.637 260.292C138.313 265.65 130.411 266.486 123.492 262.483C118.542 259.614 115.199 255.296 112.738 250.234C111.847 248.405 111.095 246.501 110.38 244.858C106.944 247.532 103.73 250.392 100.164 252.714C95.7997 255.556 90.8593 256.921 85.6124 255.955C77.2545 254.423 72.602 248.776 70.5497 241.022C69.3981 236.695 69.2774 232.089 68.6738 227.52C68.1073 227.752 67.2437 228.086 66.3986 228.458C61.2539 230.686 55.9327 231.838 50.2958 231.383C42.3558 230.742 35.7717 225.402 34.2115 217.611C33.5522 214.305 33.4965 210.711 34.0258 207.386C34.6387 203.458 36.1803 199.679 37.2296 196.103C33.6729 195.778 29.8654 195.732 26.1601 195.045C16.7807 193.308 10.3359 187.383 9.02649 179.341C7.89354 172.395 10.5588 166.47 14.7006 161.121C16.4186 158.902 18.443 156.933 20.421 154.75C20.0774 154.565 19.7989 154.37 19.4924 154.258C10.243 150.915 2.94383 145.538 0 135.602C0 133.531 0 131.46 0 129.389C1.04938 127.058 1.83873 124.56 3.20385 122.433C6.74201 116.927 12.0725 113.648 18.0251 111.271C18.8331 110.946 19.641 110.612 19.8824 110.51C16.8365 106.21 13.354 102.375 11.116 97.917C5.33046 86.3925 10.3638 74.7379 22.6684 70.9768C27.3581 69.5467 32.4099 69.3053 37.4525 68.4973C37.4061 68.9152 37.4897 68.7295 37.4339 68.5902C37.1554 67.8659 36.8489 67.1601 36.5332 66.445C34.258 61.226 33.0879 55.8212 33.5986 50.0915C34.3044 42.1515 39.737 35.6695 47.5748 34.2022C50.8158 33.5986 54.3075 33.5429 57.5578 34.0536C61.486 34.6758 65.2749 36.1803 68.8781 37.2204C69.2031 33.6358 69.2495 29.8283 69.9368 26.1415C71.6733 16.7622 77.5981 10.3173 85.6403 9.01721C92.5866 7.89354 98.5114 10.5588 103.851 14.7006C106.061 16.4186 108.039 18.443 110.222 20.421C110.417 20.0589 110.602 19.7896 110.714 19.4831C114.048 10.2245 119.452 2.95311 129.37 0L129.389 0ZM157.156 227.501C157.1 228.523 156.951 230.333 156.942 232.144C156.942 232.962 156.989 233.927 157.397 234.587C160.62 239.694 164.622 244.068 170.12 246.771C177.753 250.532 184.179 247.792 186.826 239.685C188.702 233.946 188.349 228.114 187.086 222.319C186.91 221.493 186.111 220.759 185.48 220.09C182.712 217.137 179.806 214.305 177.159 211.25C175.673 209.541 176.054 207.266 177.632 205.919C179.258 204.545 181.31 204.656 182.972 206.281C183.65 206.941 184.152 207.786 184.857 208.408C188.851 211.928 192.649 215.735 196.976 218.8C201.666 222.115 207.117 223.935 213.023 223.694C219.459 223.434 223.517 219.468 223.619 213.07C223.656 210.609 223.35 208.055 222.691 205.687C219.905 195.778 213.321 188.591 205.436 182.424C194.032 173.509 181.347 166.739 168.346 160.508C164.576 158.707 164.566 158.734 161.511 161.734C161.26 161.975 161.037 162.273 160.74 162.421C158.651 163.48 158.688 164.826 159.747 166.767C164.483 175.459 169.061 184.244 173.751 192.964C175.32 195.88 174.8 198.471 172.209 199.391C169.795 200.245 168.207 199.038 167.129 197.032C162.18 187.773 157.165 178.533 152.41 169.172C151.37 167.12 150.321 166.154 148.018 166.173C145.473 166.191 143.133 169.015 143.978 171.392C144.898 173.992 145.891 176.565 146.764 179.174C151.937 194.645 156.515 210.256 157.137 227.51L157.156 227.501ZM107.844 37.3132C107.891 36.3939 108.039 34.6758 108.049 32.9578C108.049 32.1313 108.058 31.147 107.649 30.4969C104.176 25.0179 99.8858 20.3375 93.7845 17.7372C87.089 14.877 81.4242 17.2729 78.6382 24.0056C76.5209 29.1225 76.688 34.4344 77.2824 39.802C77.561 42.3001 78.4339 44.306 80.5512 45.9218C82.9007 47.7141 83.1143 50.2122 81.4985 51.9673C79.8362 53.7782 77.8489 53.5275 75.3322 51.6516C71.8869 49.0885 68.4323 46.4883 64.7084 44.371C60.4552 41.9565 55.747 40.8328 50.7694 41.3714C45.5318 41.9472 41.7336 45.5596 41.455 50.7879C41.3064 53.5832 41.5293 56.5177 42.2629 59.2015C45.0396 69.3146 51.8002 76.5859 59.8609 82.8171C71.4505 91.7786 84.3123 98.5764 97.4527 104.91C99.6722 105.978 101.455 106.656 102.895 103.916C103.275 103.192 104.018 102.542 104.752 102.152C106.423 101.269 106.182 100.211 105.504 98.7807C99.8393 86.8568 93.766 75.1743 86.1696 64.337C85.7795 63.7705 85.3338 63.204 85.1109 62.5725C84.4516 60.7524 84.8323 59.118 86.4668 58.0036C88.064 56.9078 89.7449 56.9913 91.2122 58.2915C91.8437 58.8486 92.3173 59.6101 92.8094 60.3159C100.722 71.664 107.101 83.8758 112.896 96.4033C113.797 98.3535 116.36 99.4864 118.385 98.8549C119.963 98.3628 121.514 95.0846 120.938 93.4688C119.842 90.3857 118.672 87.3304 117.66 84.2194C112.738 69.2124 108.383 54.0754 107.835 37.3132H107.844ZM158.567 115.636C158.595 108.727 152.763 104.9 146.755 107.111C143.43 108.336 141.777 107.789 140.505 104.761C138.973 101.112 136.289 99.0407 132.37 99.0871C128.572 99.1335 125.972 101.177 124.476 104.733C123.232 107.705 121.533 108.364 118.496 107.194C114.958 105.838 111.67 106.108 108.922 108.819C106.08 111.615 105.811 114.976 107.213 118.598C108.336 121.495 107.668 123.251 104.863 124.411C101.223 125.925 99.0778 128.544 99.0778 132.472C99.0778 136.4 101.195 139.038 104.835 140.551C107.659 141.731 108.346 143.477 107.222 146.346C105.811 149.968 106.061 153.339 108.894 156.134C111.726 158.939 115.097 159.115 118.71 157.713C121.468 156.636 123.232 157.323 124.346 159.988C125.897 163.712 128.544 165.941 132.602 165.894C136.54 165.848 139.112 163.638 140.616 160.025C141.74 157.341 143.505 156.626 146.235 157.704C149.847 159.134 153.228 158.957 156.06 156.162C158.976 153.293 159.162 149.847 157.666 146.142C156.636 143.57 157.36 141.722 159.877 140.681C163.591 139.149 165.885 136.558 165.894 132.5C165.894 128.442 163.628 125.842 159.905 124.309C157.369 123.269 156.747 121.477 157.62 118.849C158.047 117.558 158.391 116.23 158.567 115.626V115.636ZM91.435 128.451C79.0004 123.891 66.4172 119.815 53.3417 117.419C43.5259 115.617 33.7193 114.568 23.9406 117.521C18.8423 119.062 14.0969 121.263 10.5959 125.461C6.80702 129.983 6.69558 135.128 10.6516 139.502C12.5739 141.629 14.9977 143.458 17.5237 144.842C24.0149 148.399 31.147 149.559 38.4833 149.309C49.9243 148.928 60.9846 146.328 71.8869 143.049C78.5268 141.053 85.0831 138.778 91.435 136.707V128.451ZM173.565 136.54C176.36 137.543 179.174 138.611 182.016 139.558C196.503 144.368 211.101 148.724 226.489 149.281C235.543 149.606 244.198 147.897 251.59 142.242C259.075 136.521 259.057 128.553 251.646 122.786C246.176 118.524 239.778 116.629 232.989 115.951C223.248 114.976 213.711 116.583 204.368 119.025C193.921 121.756 183.622 125.024 173.546 127.968V136.54H173.565ZM128.544 173.565C128.451 173.779 128.275 174.066 128.173 174.382C124.792 185.656 121.059 196.846 118.152 208.241C115.794 217.509 114.623 227.055 116.453 236.658C117.642 242.926 119.768 248.814 124.384 253.438C129.426 258.499 135.555 258.537 140.551 253.438C142.269 251.683 143.737 249.566 144.898 247.393C148.389 240.855 149.578 233.742 149.29 226.405C148.779 213.126 145.427 200.403 141.424 187.829C139.874 182.954 138.146 178.134 136.595 173.574H128.535L128.544 173.565ZM136.549 91.435C137.543 88.6491 138.601 85.8446 139.548 82.9936C144.368 68.5159 148.724 53.9082 149.281 38.5205C149.606 29.559 147.925 20.9875 142.399 13.6233C136.549 5.82265 128.544 5.83193 122.638 13.549C118.477 18.9816 116.62 25.2965 115.951 31.992C114.967 41.8265 116.602 51.438 119.072 60.8638C121.793 71.2183 125.043 81.4427 127.977 91.435H136.549ZM211.668 40.7771C208.306 41.7429 204.814 42.4115 201.592 43.7395C193.475 47.0919 187.411 53.0631 182.127 59.9073C173.129 71.5712 166.303 84.5073 159.951 97.722C158.957 99.7836 158.307 101.437 160.907 102.746C161.632 103.117 162.319 103.851 162.69 104.585C163.675 106.516 164.882 106.201 166.461 105.383C170.435 103.331 174.521 101.483 178.487 99.4121C190.114 93.3295 201.434 86.7453 211.064 77.6817C217.147 71.9612 221.632 65.2006 223.35 56.8706C225.319 47.3519 220.694 41.1393 211.658 40.7771H211.668ZM41.2971 210.497C41.2321 219.524 45.5597 223.935 53.1374 223.656C55.7655 223.554 58.4586 223.034 60.9567 222.189C70.2153 219.078 76.9945 212.661 82.8357 205.111C91.8436 193.457 98.6321 180.502 105.049 167.315C106.182 164.994 106.312 163.48 103.925 162.096C103.145 161.641 102.467 160.833 102.003 160.035C101.186 158.632 100.294 158.707 99.0314 159.394C89.6427 164.455 80.0683 169.2 70.8654 174.586C63.0554 179.155 55.7191 184.542 49.8965 191.637C45.0489 197.543 41.5943 204.09 41.2971 210.507V210.497ZM157.1 38.2047C157.156 38.2047 157.211 38.214 157.267 38.2233C156.859 42.1608 156.608 46.1261 156.023 50.0357C153.803 64.922 149.253 79.1861 144.127 93.2738C143.495 95.0011 144.768 98.0656 146.393 98.7807C148.008 99.4957 151.157 98.2235 151.992 96.589C156.162 88.4726 160.146 80.2541 164.585 72.2955C169.971 62.6375 176.156 53.481 184.393 45.959C186.315 44.2038 187.42 42.3929 187.69 39.867C188.321 34.1558 188.507 28.5003 185.953 23.142C183.186 17.3101 178.097 15.202 172.023 17.3472C167.241 19.0374 163.675 22.3712 160.406 26.123C157.936 28.9461 156.116 31.8992 157.081 35.8831C157.258 36.6167 157.109 37.4247 157.109 38.2047H157.1ZM107.881 226.767C107.826 226.767 107.779 226.758 107.724 226.749C108.132 222.811 108.383 218.846 108.968 214.936C111.197 200.05 115.738 185.795 120.873 171.698C121.486 170.008 120.186 166.888 118.58 166.201C116.927 165.495 113.834 166.758 112.989 168.411C108.819 176.527 104.845 184.746 100.397 192.704C95.0011 202.353 88.8255 211.519 80.5884 219.032C78.6568 220.787 77.5703 222.607 77.2917 225.124C76.7066 230.389 76.5209 235.617 78.5175 240.669C81.322 247.774 87.3583 250.522 94.1188 247.04C97.8427 245.118 101.037 242.034 104.195 239.174C107.176 236.481 108.959 233.11 107.891 228.82C107.733 228.17 107.872 227.445 107.872 226.758L107.881 226.767ZM227.306 107.835C228.383 107.891 230.185 108.049 231.996 108.039C232.897 108.039 233.964 107.993 234.68 107.538C239.694 104.343 243.994 100.415 246.696 95.0103C250.559 87.284 247.82 80.7927 239.611 78.1274C233.955 76.2887 228.216 76.6602 222.505 77.821C221.808 77.9603 221.038 78.4246 220.573 78.9632C213.562 87.1075 204.944 93.2923 195.732 98.5764C186.863 103.665 177.651 108.179 168.569 112.887C165.755 114.345 165.346 117.669 167.566 119.833C169.089 121.31 170.361 121.542 172.283 120.688C174.874 119.545 177.614 118.747 180.307 117.846C195.36 112.803 210.572 108.485 227.315 107.826L227.306 107.835ZM37.5082 157.146C36.5053 157.1 34.7037 156.951 32.8928 156.933C32.0663 156.933 31.1005 156.951 30.4412 157.369C25.3243 160.573 20.969 164.576 18.2387 170.055C14.4591 177.651 17.1708 184.142 25.2222 186.808C30.952 188.702 36.7839 188.358 42.5787 187.114C43.4052 186.938 44.1667 186.176 44.826 185.554C47.7141 182.851 50.3979 179.898 53.4439 177.391C66.1943 166.934 80.6998 159.366 95.5954 152.54C98.1028 151.389 98.855 149.921 98.8271 147.507C98.8085 145.529 95.7254 143.254 93.8402 143.913C91.1564 144.851 88.5098 145.873 85.8167 146.773C70.3547 151.927 54.7626 156.524 37.4897 157.146H37.5082ZM98.725 116.351C99.0686 114.503 97.8613 113.602 96.0319 112.692C88.1012 108.745 80.1612 104.798 72.4255 100.48C62.7768 95.0846 53.6018 88.937 46.089 80.7091C44.1852 78.6289 42.2072 77.5053 39.5327 77.2452C33.7286 76.6973 27.9803 76.5859 22.6034 79.344C17.4494 81.9906 15.397 86.5967 17.1522 92.0944C19.4274 99.1986 24.6371 103.916 30.7198 107.779C31.2956 108.141 32.1964 108.021 32.9578 108.067C38.7062 108.374 44.5103 108.262 50.1936 109.042C65.0149 111.076 79.1583 115.738 93.1716 120.808C96.1154 121.876 99.0221 119.722 98.725 116.351ZM230.092 188.043C235.051 188.08 239.276 187.476 243.121 185.229C247.541 182.629 249.334 178.524 247.996 173.584C245.944 166.024 240.502 161.214 234.225 157.174C233.658 156.812 232.739 156.97 231.977 156.924C226.229 156.608 220.425 156.71 214.741 155.93C199.92 153.896 185.777 149.225 171.763 144.155C170.008 143.523 167.018 144.693 166.229 146.337C165.439 147.971 166.786 151.175 168.569 152.085C176.602 156.199 184.737 160.155 192.621 164.538C201.898 169.692 210.869 175.487 218.01 183.427C220.954 186.696 224.139 187.773 228.105 187.95C228.968 187.987 229.823 188.024 230.101 188.043H230.092Z" fill="white"/>
<path d="M152.893 131.376C153.06 134.292 151.862 136.038 149.522 136.28C147.108 136.53 145.603 135.128 145.213 132.249C144.145 124.467 140.533 120.827 132.816 119.787C129.89 119.397 128.497 117.957 128.711 115.533C128.915 113.175 130.661 111.94 133.549 112.088C144.043 112.645 152.271 120.855 152.893 131.367V131.376Z" fill="white"/>
<path d="M131.785 152.93C121.17 152.68 112.311 143.802 112.07 133.187C112.005 130.531 113.351 128.841 115.645 128.702C117.892 128.563 119.35 129.891 119.74 132.407C121.05 140.886 124.086 143.922 132.611 145.26C135.119 145.65 136.456 147.136 136.298 149.374C136.14 151.658 134.45 152.986 131.785 152.921V152.93Z" fill="white"/>
</g>
<defs>
<clipPath id="clip0_28_11">
<rect width="264.991" height="265" fill="white"/>
</clipPath>
</defs>
</svg>
