<svg width="256" height="244" viewBox="0 0 256 244" fill="none" xmlns="http://www.w3.org/2000/svg">
<path d="M138.31 15.27C154.92 5.58999 172.91 5.86999 191.18 11.46C200.38 14.27 206.66 20.59 209.96 29.63C211.83 34.74 213.26 40.01 214.91 45.2C216.94 51.58 220.13 57.28 224.49 62.42C233.41 72.95 240.03 84.7 242.34 98.51C244.24 109.86 242.36 120.41 235.32 129.78C235.12 130.05 234.97 130.36 235.03 130.26C238.93 133.48 243.19 136.15 246.35 139.78C256.44 151.38 258.02 164.95 253.12 179.03C245.4 201.16 229.17 213.46 206.2 216.55C199.48 217.45 192.43 216.95 185.64 216.13C171.2 214.39 158.17 218 145.84 225.13C137.71 229.82 129.76 234.85 121.48 239.24C107.51 246.63 94.12 245.32 81.57 235.64C80.79 235.04 79.59 234.37 78.76 234.55C69.56 236.52 61.05 234.23 52.65 230.75C44.41 227.33 36.67 223.14 30.14 216.95C20.33 207.66 16.25 195.76 14.5 182.78C13.29 173.83 12.41 164.82 10.69 155.98C9.74998 151.15 7.59998 146.49 5.57998 141.94C0.69998 130.94 -1.80002 119.74 1.52998 107.8C3.97998 98.98 9.03998 91.87 15.84 85.88C16.57 85.24 17.46 84.23 17.46 83.39C17.57 69.49 25.03 60.18 36.11 53.05C40.09 50.48 44.08 47.91 47.94 45.17C53.33 41.33 57.05 36.31 59.19 29.91C63.25 17.79 71.94 9.47999 82.94 3.74999C93.68 -1.85001 104.94 -0.640009 115.69 3.83999C123.32 7.01999 130.5 11.27 138.32 15.26L138.31 15.27ZM197.08 208.85C200.24 208.58 202.92 208.4 205.58 208.11C226.82 205.76 243.86 189.31 246.83 168.33C248.67 155.38 241.97 143.3 230.07 138.34C229.14 137.95 227.53 138.01 226.76 138.58C220.5 143.2 213.58 146.46 206.26 148.95C204.71 149.48 203.75 150.18 203.19 151.84C201.01 158.36 197.08 163.72 191.81 168.11C182.89 175.56 172.35 179.19 161.1 181.24C159.89 181.46 158.58 182.12 157.7 182.97C152.44 188.11 146.45 192.05 139.59 194.69C120.05 202.21 96.94 196.07 87.14 180.1C86.81 179.56 85.89 179.27 85.19 179.09C81.6 178.16 79.16 180.02 76.75 182.38C66.1 192.75 65.03 203.67 73.75 215.69C78.15 221.76 83.53 226.86 89.83 230.94C96.4 235.2 103.52 236.74 111.07 234.2C114.86 232.93 118.56 231.24 122.05 229.29C128.68 225.58 135.07 221.45 141.65 217.64C155.23 209.78 169.66 205.56 185.53 207.58C189.52 208.09 193.52 208.45 197.07 208.83L197.08 208.85ZM194.02 121.57C193.64 121.86 193.28 122.1 192.96 122.39C180.52 133.81 165.6 139.42 149.01 140.64C134.66 141.69 120.66 139.32 107.06 134.76C104.48 133.9 102.46 134.21 100.29 135.6C93.83 139.74 90.77 145.86 90.01 153.25C88.03 172.52 97.57 185.51 115.54 188.65C129.8 191.14 142.03 186.53 152.06 176.26C154.16 174.11 156.35 173.05 159.21 172.67C166.27 171.75 172.95 169.57 179.27 166.26C197.24 156.83 200.46 139.19 194.02 121.56V121.57ZM205.61 140.72C210.9 137.8 215.72 135.61 220.02 132.66C231.73 124.6 236.29 113.35 233.73 99.33C231.59 87.58 225.97 77.47 218.33 68.49C212.59 61.75 208.56 54.23 206.12 45.77C204.86 41.4 203.49 37.05 201.98 32.75C199.5 25.64 194.43 21.16 187.28 19.05C177.7 16.23 167.92 15.49 158.07 17.03C147.23 18.73 138.34 23.75 132.58 33.46C132.1 34.26 131.74 35.14 131.38 35.87C136.26 36.26 140.93 36.3 145.49 37.06C154.08 38.49 160.64 43.61 166.58 49.61C173.15 56.25 180.1 62.33 188.23 67.07C194.42 70.68 198.88 76.06 201.43 82.83C204.97 92.21 204.26 101.6 201.23 110.96C200.92 111.92 200.56 113.12 200.87 113.98C203.83 122.29 205.73 130.79 205.62 140.7L205.61 140.72ZM130.14 21.1C122.65 16.03 114.34 11.24 104.73 9.69999C100.5 9.01999 95.81 8.79999 91.75 9.90999C79.99 13.14 71.74 20.98 67.54 32.32C64.33 41 59.3 47.88 51.77 53.05C48.31 55.43 44.72 57.62 41.26 59.99C38.91 61.6 36.51 63.21 34.41 65.13C27.27 71.65 24.61 79.73 26.85 89.17C29.37 99.78 35.74 107.94 43.88 114.88C44.37 115.3 44.97 115.61 45.81 116.16C45.95 114.56 46.13 113.33 46.14 112.1C46.19 107.81 46.05 103.51 46.21 99.22C46.56 89.83 51.78 82.51 60.76 79.77C64.96 78.49 69.52 78.25 73.94 77.91C75.56 77.79 76.16 77.41 76.8 75.96C78.73 71.56 80.48 66.99 83.07 62.98C91.57 49.83 103.65 41.64 118.99 38.31C120 38.09 121.3 37.52 121.75 36.72C124.59 31.71 127.23 26.59 130.14 21.11V21.1ZM19.25 94.34C14.35 99.13 11.19 104.43 9.63998 110.65C7.12998 120.74 9.76998 130.01 13.76 139.26C16.32 145.2 18.56 151.43 19.8 157.76C21.61 166.95 22.26 176.36 23.66 185.64C25.45 197.52 30.61 207.53 40.61 214.69C48.36 220.24 57.07 223.62 66.13 226.24C67.65 226.68 69.36 226.46 71.29 226.57C55.45 203.26 55.29 198.47 69.4 177.17C68.53 176.9 67.7 176.65 66.87 176.39C54.81 172.59 46.87 164.79 45.1 152.1C44.12 145.09 44.45 137.86 44.6 130.74C44.67 127.66 44.58 125.29 41.39 123.76C39.66 122.93 38.24 121.42 36.78 120.11C28.91 113.09 22.9 104.76 19.25 94.35V94.34ZM82.74 170.34C80.95 162.56 80.49 155.13 82.19 147.66C83.92 140.08 87.95 133.97 94.38 129.24C78.85 118.94 72.57 104.56 74.19 86.65C58.94 85.63 54.18 92.99 54.63 103.14C54.92 109.54 54.17 115.98 53.85 122.41C53.47 129.9 52.62 137.4 52.74 144.89C52.89 154 55.87 161.95 64.76 166.37C70.31 169.12 76.26 169.99 82.73 170.36L82.74 170.34ZM169.53 127.48C177.14 124.4 183.17 120.26 188.5 115C191.2 112.34 192.95 109.25 193.86 105.6C197.45 91.13 193.81 79.73 180.5 72.26C176.56 70.05 172.95 67.13 169.49 64.19C165.48 60.77 161.81 56.94 157.97 53.32C153.37 48.98 148.13 45.66 141.75 45.13C137.24 44.75 132.62 44.92 128.12 45.43C116.96 46.7 106.7 50.31 98.31 58.17C97.59 58.84 96.92 59.56 95.97 60.52C101 60.27 105.45 59.9 109.92 59.85C127.56 59.65 144 63.66 158.32 74.43C167.96 81.68 174.26 91.02 175.33 103.34C176.06 111.71 173.87 119.46 169.53 127.49V127.48ZM154.4 86.22C153.76 84.41 153.64 82.04 152.39 80.91C149.37 78.19 145.98 75.55 141.39 76.61C135.5 77.97 129.41 78.88 123.8 81C116.22 83.87 111.04 89.46 109.41 97.72C109.22 98.68 109.54 100.07 110.16 100.8C113.06 104.2 116.31 107.3 119.13 110.77C121.28 113.42 123.31 113.39 126.21 112.06C134.14 108.45 141.95 104.72 148.14 98.37C151.41 95.02 153.72 91.17 154.4 86.2V86.22ZM85.73 77.47C85.52 77.69 85.35 77.79 85.29 77.94C80.23 91.15 81.36 108.74 95.86 119.78C103.2 125.37 111.88 127.51 120.57 129.64C123.7 130.41 126.91 130.89 130.09 131.5C130.18 131.3 130.27 131.1 130.36 130.9C110.42 117.31 95.44 99.6 85.75 77.47H85.73ZM162.26 90.87C156.9 106.93 143.56 113.37 129.43 120.14C135.5 123.81 141.17 127.14 146.73 130.63C150.91 133.25 154.97 131.71 157.6 128.96C162.86 123.46 165.78 116.93 166.63 109.39C167.36 102.84 165.93 96.84 162.25 90.88L162.26 90.87ZM127.21 70.21C115.57 67.68 104 67.95 91.75 70.21C95.28 77.11 98.61 83.62 102.28 90.81C107.58 79.31 116.56 73.78 127.21 70.22V70.21Z" fill="white"/>
</svg>
