<svg width="245" height="244" viewBox="0 0 245 244" fill="none" xmlns="http://www.w3.org/2000/svg">
<path d="M37.6866 65.6697C36.7466 60.3489 35.5824 55.1488 34.9873 49.8883C34.5734 46.2663 34.8839 42.5495 35.0046 38.8844C35.0908 36.2024 36.6259 34.7968 39.3078 34.5208C47.5263 33.6757 55.555 34.6502 63.4629 36.901C64.1356 37.0907 64.7996 37.2977 65.4809 37.4701C65.6361 37.5132 65.8172 37.4529 66.119 37.4356C66.8434 28.7429 68.9735 20.4124 72.9921 12.6079C74.8808 8.95143 76.2261 8.38227 80.1585 9.67583C87.6353 12.1422 94.4394 15.8332 100.554 20.7918C101.226 21.3351 101.916 21.8439 102.735 22.4821C106.78 14.5051 111.98 7.64925 118.672 1.95758C121.716 -0.629537 123.191 -0.646785 126.209 1.93171C132.893 7.632 138.101 14.4965 142.042 22.2665C145.604 19.8605 148.916 17.2475 152.572 15.2554C156.617 13.0477 160.92 11.2712 165.223 9.58097C168.535 8.27878 170.121 9.10666 171.786 12.3406C175.597 19.7397 177.805 27.6132 178.624 35.8834C178.676 36.4008 178.736 36.9096 178.771 37.2287C184.092 36.2887 189.292 35.1331 194.552 34.5294C198.088 34.1241 201.719 34.3311 205.289 34.5467C208.523 34.745 209.592 35.9179 209.928 39.1173C210.782 47.3271 209.739 55.3644 207.471 63.2637C207.255 64.0054 207.057 64.747 206.807 65.6525C215.698 66.3855 224.028 68.5242 231.833 72.5342C235.472 74.4056 236.05 75.7854 234.756 79.7178C232.281 87.186 228.59 93.9987 223.623 100.104C223.08 100.777 222.571 101.467 221.941 102.286C229.927 106.331 236.783 111.531 242.483 118.214C245.07 121.25 245.079 122.759 242.518 125.76C236.817 132.443 229.97 137.669 221.95 141.714C223.149 143.266 224.278 144.689 225.365 146.146C229.634 151.89 232.842 158.168 234.972 164.998C235.946 168.102 235.274 169.741 232.367 171.233C224.416 175.329 215.956 177.649 207.221 178.322C208.161 183.66 209.316 188.851 209.911 194.112C210.317 197.734 210.015 201.45 209.903 205.116C209.816 207.798 208.29 209.203 205.599 209.471C197.208 210.324 189.007 209.358 180.935 206.987C180.435 206.84 179.935 206.685 179.426 206.564C179.271 206.53 179.09 206.582 178.797 206.607C178.055 215.197 175.977 223.458 172.019 231.194C170.035 235.074 168.742 235.652 164.714 234.316C157.246 231.832 150.442 228.132 144.336 223.165C143.672 222.622 142.982 222.122 142.172 221.509C138.119 229.512 132.91 236.368 126.226 242.077C123.208 244.655 121.708 244.647 118.681 242.06C112.006 236.351 106.78 229.512 102.934 221.88C98.3546 224.778 93.9737 227.813 89.3341 230.4C86.3072 232.091 82.9612 233.263 79.6755 234.454C76.3382 235.661 74.7773 234.902 73.1129 231.668C69.3012 224.269 67.0849 216.395 66.2656 208.125C66.2139 207.616 66.1449 207.099 66.1104 206.814C60.9534 207.729 55.9258 208.893 50.8292 209.445C47.0347 209.859 43.1454 209.565 39.2992 209.445C36.6 209.367 35.2461 207.789 34.9701 205.116C34.125 196.897 35.1081 188.868 37.3589 180.96C37.5486 180.288 37.7556 179.615 37.9194 178.943C37.9539 178.796 37.8677 178.623 37.8159 178.339C29.1318 177.623 20.8013 175.467 13.0054 171.448C9.45246 169.62 8.83155 168.197 10.0561 164.498C12.5484 156.943 16.2566 150.044 21.3015 143.87C21.7413 143.326 22.1725 142.775 22.5864 142.214C22.6813 142.085 22.6726 141.886 22.733 141.602C14.9372 137.669 8.08991 132.443 2.381 125.769C-0.188874 122.759 -0.197498 121.25 2.39825 118.223C8.10716 111.548 14.9372 106.313 22.8969 102.329C21.1031 99.8887 19.1024 97.7328 17.7657 95.2233C14.9803 89.9973 12.3845 84.6506 10.0389 79.209C8.63321 75.9579 9.54732 74.328 12.7812 72.655C20.1804 68.8347 28.0539 66.6356 36.324 65.8163C36.8414 65.7646 37.3503 65.7042 37.6693 65.6697H37.6866ZM59.3753 121.957C59.358 156.728 87.6353 185.108 122.268 185.091C157.194 185.074 185.454 156.9 185.532 122.026C185.601 87.3326 157.324 58.9605 122.622 58.9174C87.7215 58.8742 59.3925 87.1083 59.3753 121.957ZM80.7363 64.0312C90.0068 57.4858 99.9672 53.424 110.937 51.4751C105.754 35.2021 95.4397 24.2672 79.4858 18.3254C72.492 33.8568 72.8887 48.8017 80.7276 64.0312H80.7363ZM192.966 133.521C191.017 144.508 186.946 154.46 180.625 163.411C191.327 171.414 214.999 172.026 226.02 164.627C220.079 148.992 209.213 138.618 192.966 133.521ZM134.117 51.5441C145.026 53.3378 154.978 57.5721 164.171 64.0054C172.027 48.7069 172.415 33.7102 165.456 18.472C150.77 22.9046 137.834 36.556 134.117 51.5441ZM193.388 110.367C209.247 105.296 220.182 94.9732 226.115 79.0193C210.515 72.0513 195.544 72.4049 180.858 80.0973C183.488 85.1766 186.317 89.8248 188.369 94.8007C190.43 99.7766 191.715 105.072 193.388 110.375V110.367ZM51.9244 133.513C35.6514 138.687 24.7251 149.018 18.8523 164.791C33.5041 172.535 53.0541 170.94 64.2649 163.411C57.9351 154.442 53.8733 144.482 51.9244 133.513ZM79.391 225.433C93.2407 222.027 108.341 206.056 110.626 192.447C99.8292 190.559 89.9119 186.402 80.7276 179.986C72.8714 195.198 72.4834 210.186 79.391 225.433ZM134.091 192.473C138.222 207.884 151.416 221.725 165.258 225.399C172.777 212.092 171.699 191.568 163.809 180.219C154.9 186.488 145.043 190.585 134.091 192.473ZM18.7661 79.0624C24.8286 95.0594 35.7204 105.373 51.5104 110.341C53.2093 104.977 54.5029 99.6818 56.5639 94.7059C58.625 89.7386 61.445 85.099 64.0666 80.0541C49.2941 72.4566 34.3147 71.9909 18.7575 79.0624H18.7661ZM122.579 9.97766C117.905 13.6772 112.627 21.0333 109.824 27.3286C109.16 28.8205 109.376 29.8381 110.333 31.0972C114.179 36.1593 116.878 41.8079 118.715 47.8876C118.983 48.7758 119.258 49.6555 119.483 50.4057H125.493C127.339 43.0842 130.461 36.5043 134.867 30.5108C135.35 29.8554 135.437 28.5101 135.109 27.7339C132.263 20.947 128.055 15.1002 122.57 9.96903L122.579 9.97766ZM43.1626 201.321C50.993 201.597 58.1593 200.286 65.0669 197.561C65.6792 197.32 66.4209 196.561 66.4985 195.957C67.4988 188.317 70.1204 181.262 73.8804 174.932C72.423 173.294 71.1208 171.811 69.8272 170.362C63.2473 174.277 56.426 176.804 49.0527 177.839C48.3283 177.942 47.3107 178.511 47.0606 179.115C44.1716 186.135 42.8263 193.439 43.1626 201.321ZM10.3235 121.983C14.9458 126.976 20.0855 130.658 25.7858 133.659C28.3212 134.996 30.227 135.298 32.7797 133.297C38.1005 129.115 44.4045 126.717 50.9154 124.992V118.99C43.499 117.084 36.7552 113.928 30.6669 109.366C30.1753 108.995 29.1491 108.926 28.5627 109.168C21.6206 112.057 15.6271 116.326 10.3321 121.991L10.3235 121.983ZM170.828 174.631C174.261 180.409 177.003 186.402 177.762 192.965C178.184 196.613 179.883 198.165 183.117 198.76C183.454 198.82 183.781 198.984 184.109 199.079C189.835 200.674 195.622 201.657 201.727 201.261C202.021 194.991 200.96 189.205 199.485 183.418C198.537 179.676 197.01 177.028 192.655 177.226C192.069 177.252 191.439 177.063 190.87 176.856C185.497 174.898 180.133 172.923 174.519 170.862C173.579 171.819 172.294 173.121 170.82 174.622L170.828 174.631ZM122.449 234.143C128.098 228.857 132.323 222.932 135.221 216.085C135.48 215.473 135.549 214.421 135.195 213.955C130.556 207.815 127.373 200.993 125.45 193.534H119.44C117.517 201.002 114.317 207.823 109.686 213.964C109.341 214.429 109.41 215.481 109.678 216.094C112.575 222.941 116.809 228.865 122.441 234.143H122.449ZM234.584 122.009C229.323 116.36 223.39 112.143 216.551 109.228C215.939 108.97 214.878 108.892 214.421 109.237C208.281 113.885 201.451 117.059 193.983 118.99V125.001C201.434 126.916 208.255 130.106 214.396 134.746C214.861 135.099 215.905 135.039 216.526 134.78C223.39 131.9 229.297 127.64 234.592 122.009H234.584ZM175.037 73.6467C181.643 69.697 188.55 67.1099 196.036 66.1096C196.691 66.0233 197.597 65.4714 197.821 64.9109C200.701 57.8739 202.046 50.5523 201.719 42.7306C195.501 42.3425 189.714 43.4378 183.937 44.9124C180.237 45.8524 177.469 47.3184 177.684 51.7424C177.719 52.4151 177.486 53.1395 177.253 53.7862C175.313 59.0898 173.338 64.3762 171.354 69.7402C172.346 70.7922 173.597 72.1289 175.028 73.6467H175.037ZM43.1713 42.7134C42.8263 50.5351 44.1889 57.8308 47.0261 64.8591C47.2417 65.3852 47.9747 65.9802 48.5266 66.0492C56.1672 67.0323 63.2128 69.6798 69.1805 73.2155C71.0087 71.7926 72.5782 70.5853 74.1046 69.3952C70.1549 62.7808 67.6109 55.968 66.5933 48.5861C66.4899 47.8531 65.9379 46.8096 65.3257 46.5682C58.2973 43.7396 51.0016 42.3512 43.1713 42.7047V42.7134Z" fill="white"/>
</svg>
