<svg width="254" height="265" viewBox="0 0 254 265" fill="none" xmlns="http://www.w3.org/2000/svg">
<path d="M88.4777 35.8457C94.8832 27.4451 101.145 19.0254 107.637 10.7776C118.987 -3.64658 135.836 -3.57976 147.186 10.9112C153.659 19.1782 159.921 27.5883 166.307 35.9698C174.164 30.0703 182.039 24.0276 190.048 18.1567C203.776 8.09514 219.498 12.5818 226.066 28.3138C236.843 54.1647 245.521 80.6647 250.427 108.291C254.189 129.531 255.811 150.829 250.924 172.155C239.478 221.995 202.048 256.389 151.205 263.205C127.77 266.346 104.401 265.783 81.7095 258.203C41.0145 244.619 15.8605 216.439 4.72017 175.343C0.0521248 158.103 0.176224 140.557 2.26682 123.002C6.21891 89.6189 16.3091 57.9163 29.3014 27.0633C35.325 12.7632 51.3338 8.36243 63.9824 17.4885C72.2207 23.4357 80.249 29.6693 88.4682 35.8457H88.4777ZM54.3408 153.883C55.2191 162.112 55.7346 170.408 57.0519 178.56C59.9349 196.383 66.0539 212.993 77.8243 226.987C94.024 246.242 114.73 254.289 139.578 249.784C159.291 246.204 173.896 234.491 183.557 217.413C201.37 185.92 204.988 152.413 193.819 117.952C181.571 80.1587 159.205 48.0742 134.767 17.3358C130.643 12.1427 123.808 12.3909 119.579 17.6603C99.3412 42.9098 81.175 69.5148 67.925 99.1746C60.1735 116.529 54.4268 134.457 54.3313 153.864L54.3408 153.883ZM173.858 47.5492C175.195 49.6494 176.331 51.3963 177.438 53.1719C187.566 69.2762 196.549 85.9723 203.489 103.728C218.228 141.445 216.644 178.732 200.1 215.389C196.521 223.322 191.098 230.434 186.707 237.622C186.898 237.526 187.671 237.202 188.397 236.801C219.145 219.37 234.781 192.068 239.449 157.855C241.435 143.287 239.889 128.739 237.55 114.286C232.92 85.6764 224.08 58.3268 212.711 31.7504C210.343 26.2137 204.415 24.6576 199.442 28.0465C195.881 30.4712 192.435 33.0678 189.017 35.6834C183.948 39.5687 178.956 43.5494 173.858 47.5397V47.5492ZM80.984 47.3296C72.7744 41.096 64.7366 34.9102 56.6033 28.8484C50.3315 24.1708 44.6229 25.8318 41.5204 33.0582C33.8549 50.9381 27.4495 69.2666 22.7146 88.1297C17.0442 110.706 12.5671 133.531 15.2495 156.938C18.6098 186.264 30.9624 211.007 54.7609 229.269C59.0184 232.534 63.7533 235.168 68.2686 238.099C66.6172 234.71 64.4502 232.056 62.5314 229.231C60.5458 226.319 58.5411 223.36 56.9756 220.21C38.6566 183.324 35.9169 145.492 50.1692 106.63C57.8156 85.7718 68.6027 66.5555 80.9936 47.3201L80.984 47.3296Z" fill="white"/>
</svg>
